# xmcd
#
# Track frame offsets: 
#        182
#        18685
#        45517
#
# Disc length: 954 seconds
#
# Revision: 1
# Processed by: cddbd v1.5.2PL0 Copyright (c) Steve Scherf et al.
# Submitted via: ExactAudioCopyFreeDBPlugin 1.0
#
DISCID=1d03b803
DTITLE=George Benson - The Long And Winding Road
DYEAR=1995
DGENRE=
TTITLE0=GEORGE BENSON - The Long And Winding Road
TTITLE1=McCOY TYNER - She's Leaving Home
TTITLE2=GROOVE COLLECTIVE - She's So Heavy
EXTD=
EXTT0=
EXTT1=
EXTT2=
PLAYORDER=
